<svg xmlns="http://www.w3.org/2000/svg" viewBox="0 0 120 120" role="img" aria-label="cute wand">
  <defs>
    <linearGradient id="stick" x1="0" y1="0" x2="0" y2="1">
      <stop offset="0%" stop-color="#ffd977"/>
      <stop offset="100%" stop-color="#ffc84f"/>
    </linearGradient>
    <linearGradient id="heart" x1="0" y1="0" x2="1" y2="1">
      <stop offset="0%" stop-color="#ff9bcf"/>
      <stop offset="100%" stop-color="#ff5da2"/>
    </linearGradient>
  </defs>
  <rect x="53" y="34" width="14" height="62" rx="7" fill="url(#stick)"/>
  <circle cx="60" cy="98" r="8" fill="#ffd977"/>
  <path d="M60 18c5-9 20-6 20 5 0 12-13 17-20 25-7-8-20-13-20-25 0-11 15-14 20-5z" fill="url(#heart)"/>
  <circle cx="53" cy="38" r="3" fill="#fff2f9"/>
  <circle cx="67" cy="38" r="3" fill="#fff2f9"/>
  <path d="M53 46c4 4 10 4 14 0" fill="none" stroke="#fff2f9" stroke-width="2" stroke-linecap="round"/>
  <path d="M83 30l4 7 8 1-6 5 2 8-8-4-7 4 2-8-6-5 8-1z" fill="#fff4bd"/>
  <path d="M28 46l3 5 6 1-5 4 2 6-6-3-5 3 2-6-5-4 6-1z" fill="#fff4bd"/>
</svg>
